<?xml version="1.0" encoding="UTF-8" standalone="no"?>
<!DOCTYPE svg PUBLIC "-//W3C//DTD SVG 1.1//EN" "http://www.w3.org/Graphics/SVG/1.1/DTD/svg11.dtd">
<svg xmlns="http://www.w3.org/2000/svg" xmlns:xlink="http://www.w3.org/1999/xlink" version="1.1" width="340.157pt" height="252pt" viewBox="0 0 340.157 252">
<g enable-background="new">
<path transform="matrix(1,0,0,-1,7.2,3.3869935)" stroke-width=".797" stroke-linecap="butt" stroke-miterlimit="10" stroke-linejoin="miter" fill="none" stroke="#000000" d="M 0 0 L 332.957 0 "/>
<text xml:space="preserve" transform="matrix(1 0 -0 1 0 252)" font-size="9.9626" font-family="CMBX10" font-weight="bold"><tspan y="-239.303" x="14.672 23.329499 26.507569 32.236066 37.96456 42.686838 45.864908 50.318189 56.684289 70.0541 75.78259">Algorithm1:</tspan></text>
<text xml:space="preserve" transform="matrix(1 0 -0 1 0 252)" font-size="9.9626" font-family="CMR10"><tspan y="-239.303" x="82.293 89.34652 92.11612 96.04138 100.464778 104.88817 108.76362 111.53322 117.072429 125.37127 130.63152 133.94907 143.08478 147.51815 153.04738 158.02867 160.79828 166.33748">Bisectingk-Medoids</tspan></text>
<path transform="matrix(1,0,0,-1,7.2,17.024994)" stroke-width=".797" stroke-linecap="butt" stroke-miterlimit="10" stroke-linejoin="miter" fill="none" stroke="#000000" d="M 0 0 L 332.957 0 "/>
<text xml:space="preserve" transform="matrix(1 0 -0 1 0 252)" font-size="6.9738" font-family="CMBX7" font-weight="bold"><tspan y="-224.215" x="12.649">1</tspan></text>
<text xml:space="preserve" transform="matrix(1 0 -0 1 0 252)" font-size="9.9626" font-family="CMR10"><tspan y="-224.215" x="22.144001 25.7405 31.279706 36.818914 42.35812 46.23357 53.426568 61.037996 66.019298 69.894748 74.876049 78.80131 83.2247">Input:Dataset</tspan></text>
<text xml:space="preserve" transform="matrix(1 0 -0 1 0 252)" font-size="9.9626" font-family="CMMI10" font-style="italic"><tspan y="-224.215" x="90.416">X</tspan></text>
<text xml:space="preserve" transform="matrix(1 0 -0 1 0 252)" font-size="6.9738" font-family="CMBX7" font-weight="bold"><tspan y="-212.26" x="12.649002">2</tspan></text>
<text xml:space="preserve" transform="matrix(1 0 -0 1 0 252)" font-size="9.9626" font-family="CMR10"><tspan y="-212.26" x="22.144001 29.894906 35.434114 39.309564 44.84877 50.387979 54.263429 61.456426 68.928379 71.697978 79.99682 85.536029 91.07523 96.61444 101.59574 110.462459 116.27065 120.694049 124.59939 127.36899 131.29425">Output:Himpunanberisi</tspan></text>
<text xml:space="preserve" transform="matrix(1 0 -0 1 0 252)" font-size="9.9626" font-family="CMMI10" font-style="italic"><tspan y="-212.26" x="137.351">N</tspan></text>
<text xml:space="preserve" transform="matrix(1 0 -0 1 0 252)" font-size="9.9626" font-family="CMR10"><tspan y="-212.26" x="149.763 154.1864 156.95601 162.49521 166.42047 170.29593 174.71933">cluster</tspan></text>
<text xml:space="preserve" transform="matrix(1 0 -0 1 0 252)" font-size="9.9626" font-family="CMMI10" font-style="italic"><tspan y="-212.26" x="181.948">S</tspan></text>
<text xml:space="preserve" transform="matrix(1 0 -0 1 0 252)" font-size="9.9626" font-family="CMR10"><tspan y="-212.26" x="191.399">=</tspan></text>
<text xml:space="preserve" transform="matrix(1 0 -0 1 0 252)" font-size="9.9626" font-family="CMSY10" font-style="italic"><tspan y="-212.26" x="201.91501">{</tspan></text>
<text xml:space="preserve" transform="matrix(1 0 -0 1 0 252)" font-size="9.9626" font-family="CMMI10" font-style="italic"><tspan y="-212.26" x="206.89601">C</tspan></text>
<text xml:space="preserve" transform="matrix(1 0 -0 1 0 252)" font-size="6.9738" font-family="CMR7"><tspan y="-210.76599" x="214.01702">1</tspan></text>
<text xml:space="preserve" transform="matrix(1 0 -0 1 0 252)" font-size="9.9626" font-family="CMMI10" font-style="italic"><tspan y="-212.26" x="218.48601 222.91938">,C</tspan></text>
<text xml:space="preserve" transform="matrix(1 0 -0 1 0 252)" font-size="6.9738" font-family="CMR7"><tspan y="-210.76599" x="230.03401">2</tspan></text>
<text xml:space="preserve" transform="matrix(1 0 -0 1 0 252)" font-size="9.9626" font-family="CMMI10" font-style="italic"><tspan y="-212.26" x="234.50402 238.93738">,C</tspan></text>
<text xml:space="preserve" transform="matrix(1 0 -0 1 0 252)" font-size="6.9738" font-family="CMR7"><tspan y="-210.76599" x="246.05202">3</tspan></text>
<text xml:space="preserve" transform="matrix(1 0 -0 1 0 252)" font-size="9.9626" font-family="CMMI10" font-style="italic"><tspan y="-212.26" x="250.52101 254.95438">,C</tspan></text>
<text xml:space="preserve" transform="matrix(1 0 -0 1 0 252)" font-size="6.9738" font-family="CMR7"><tspan y="-210.76599" x="262.07">4</tspan></text>
<text xml:space="preserve" transform="matrix(1 0 -0 1 0 252)" font-size="9.9626" font-family="CMMI10" font-style="italic"><tspan y="-212.26" x="266.539 270.97236 273.74195 276.51155 279.28114 283.7045">,...,C</tspan></text>
<text xml:space="preserve" transform="matrix(1 0 -0 1 0 252)" font-size="6.9738" font-family="CMMI7" font-style="italic"><tspan y="-210.76599" x="290.81703">N</tspan></text>
<text xml:space="preserve" transform="matrix(1 0 -0 1 0 252)" font-size="9.9626" font-family="CMSY10" font-style="italic"><tspan y="-212.26" x="298.37403">}</tspan></text>
<text xml:space="preserve" transform="matrix(1 0 -0 1 0 252)" font-size="6.9738" font-family="CMBX7" font-weight="bold"><tspan y="-200.305" x="12.649017">3</tspan></text>
<text xml:space="preserve" transform="matrix(1 0 -0 1 0 252)" font-size="9.9626" font-family="CMR10"><tspan y="-200.305" x="22.144017 25.740515 31.27972 34.049325 37.97459 40.744195 45.725496 48.4951 51.2647 55.18997 60.17127 64.096538 66.866138">Inisialisasi:</tspan></text>
<text xml:space="preserve" transform="matrix(1 0 -0 1 0 252)" font-size="9.9626" font-family="CMMI10" font-style="italic"><tspan y="-200.305" x="74.06102">V</tspan></text>
<text xml:space="preserve" transform="matrix(1 0 -0 1 0 252)" font-size="9.9626" font-family="CMR10"><tspan y="-200.305" x="84.85402">=</tspan></text>
<text xml:space="preserve" transform="matrix(1 0 -0 1 0 252)" font-size="9.9626" font-family="CMMI10" font-style="italic"><tspan y="-200.305" x="95.37002">X</tspan></text>
<text xml:space="preserve" transform="matrix(1 0 -0 1 0 252)" font-size="9.9626" font-family="CMR10"><tspan y="-200.305" x="104.405017">,</tspan></text>
<text xml:space="preserve" transform="matrix(1 0 -0 1 0 252)" font-size="9.9626" font-family="CMMI10" font-style="italic"><tspan y="-200.305" x="110.49401">S</tspan></text>
<text xml:space="preserve" transform="matrix(1 0 -0 1 0 252)" font-size="9.9626" font-family="CMR10"><tspan y="-200.305" x="119.94401">=</tspan></text>
<text xml:space="preserve" transform="matrix(1 0 -0 1 0 252)" font-size="9.9626" font-family="CMSY10" font-style="italic"><tspan y="-200.305" x="130.46 135.4413">{}</tspan></text>
<text xml:space="preserve" transform="matrix(1 0 -0 1 0 252)" font-size="9.9626" font-family="CMR10"><tspan y="-200.305" x="140.423">,</tspan></text>
<text xml:space="preserve" transform="matrix(1 0 -0 1 0 252)" font-size="9.9626" font-family="CMMI10" font-style="italic"><tspan y="-200.305" x="146.511 152.48856 157.13114 162.82975 166.42624 173.21077 177.85335 183.04387 187.68645">nextLevel</tspan></text>
<text xml:space="preserve" transform="matrix(1 0 -0 1 0 252)" font-size="9.9626" font-family="CMR10"><tspan y="-200.305" x="193.602">=</tspan></text>
<text xml:space="preserve" transform="matrix(1 0 -0 1 0 252)" font-size="9.9626" font-family="CMSY10" font-style="italic"><tspan y="-200.305" x="204.11801 209.0993">{}</tspan></text>
<text xml:space="preserve" transform="matrix(1 0 -0 1 0 252)" font-size="6.9738" font-family="CMBX7" font-weight="bold"><tspan y="-188.34999" x="12.649017">4</tspan></text>
<text xml:space="preserve" transform="matrix(1 0 -0 1 0 252)" font-size="9.9626" font-family="CMBX10" font-weight="bold"><tspan y="-188.34999" x="22.144017 30.422938 36.78904 39.96711 43.14518">while</tspan></text>
<text xml:space="preserve" transform="matrix(1 0 -0 1 0 252)" font-size="9.9626" font-family="CMMI10" font-style="italic"><tspan y="-188.34999" x="51.721017 56.393476 59.83057 64.901538">size</tspan></text>
<text xml:space="preserve" transform="matrix(1 0 -0 1 0 252)" font-size="9.9626" font-family="CMR10"><tspan y="-188.34999" x="69.53302">(</tspan></text>
<text xml:space="preserve" transform="matrix(1 0 -0 1 0 252)" font-size="9.9626" font-family="CMMI10" font-style="italic"><tspan y="-188.34999" x="73.40802">V</tspan></text>
<text xml:space="preserve" transform="matrix(1 0 -0 1 0 252)" font-size="9.9626" font-family="CMR10"><tspan y="-188.34999" x="81.43302">)</tspan></text>
<text xml:space="preserve" transform="matrix(1 0 -0 1 0 252)" font-size="9.9626" font-family="CMMI10" font-style="italic"><tspan y="-188.34999" x="88.07502">&#x003e;</tspan></text>
<text xml:space="preserve" transform="matrix(1 0 -0 1 0 252)" font-size="9.9626" font-family="CMR10"><tspan y="-188.34999" x="98.59102">0</tspan></text>
<text xml:space="preserve" transform="matrix(1 0 -0 1 0 252)" font-size="9.9626" font-family="CMBX10" font-weight="bold"><tspan y="-188.34999" x="106.89302 113.259128">do</tspan></text>
<path transform="matrix(1,0,0,-1,27.325,223.65)" stroke-width=".398" stroke-linecap="butt" stroke-miterlimit="10" stroke-linejoin="miter" fill="none" stroke="#000000" d="M 0 0 L 0 156.413 "/>
<text xml:space="preserve" transform="matrix(1 0 -0 1 0 252)" font-size="6.9738" font-family="CMBX7" font-weight="bold"><tspan y="-176.395" x="13.048">5</tspan></text>
<text xml:space="preserve" transform="matrix(1 0 -0 1 0 252)" font-size="9.9626" font-family="CMBX10" font-weight="bold"><tspan y="-176.395" x="37.487 40.98387 46.712369">for</tspan></text>
<text xml:space="preserve" transform="matrix(1 0 -0 1 0 252)" font-size="9.9626" font-family="CMITT10" font-style="italic"><tspan y="-176.395" x="54.754999 59.985364 65.21573 70.44609 75.67645 80.906818 86.13718 96.5979 101.82826 107.058628 112.28899 117.51935 122.74971 127.98007">&#x003c;setiapCluster</tspan></text>
<text xml:space="preserve" transform="matrix(1 0 -0 1 0 252)" font-size="9.9626" font-family="CMMI10" font-style="italic"><tspan y="-176.395" x="138.441">C</tspan></text>
<text xml:space="preserve" transform="matrix(1 0 -0 1 0 252)" font-size="9.9626" font-family="CMITT10" font-style="italic"><tspan y="-176.395" x="151.504 156.73436 161.96472 167.19509 172.42545">dalam</tspan></text>
<text xml:space="preserve" transform="matrix(1 0 -0 1 0 252)" font-size="9.9626" font-family="CMMI10" font-style="italic"><tspan y="-176.395" x="182.886">V</tspan></text>
<text xml:space="preserve" transform="matrix(1 0 -0 1 0 252)" font-size="9.9626" font-family="CMITT10" font-style="italic"><tspan y="-176.395" x="190.912">&#x003e;</tspan></text>
<text xml:space="preserve" transform="matrix(1 0 -0 1 0 252)" font-size="9.9626" font-family="CMBX10" font-weight="bold"><tspan y="-176.395" x="201.19301 207.55912">do</tspan></text>
<path transform="matrix(1,0,0,-1,42.667,186.788)" stroke-width=".398" stroke-linecap="butt" stroke-miterlimit="10" stroke-linejoin="miter" fill="none" stroke="#000000" d="M 0 0 L 0 107.597 "/>
<text xml:space="preserve" transform="matrix(1 0 -0 1 0 252)" font-size="6.9738" font-family="CMBX7" font-weight="bold"><tspan y="-164.439" x="13.446">6</tspan></text>
<text xml:space="preserve" transform="matrix(1 0 -0 1 0 252)" font-size="9.9626" font-family="CMMI10" font-style="italic"><tspan y="-164.439" x="52.829 60.669569 65.50143 74.24859">Comp</tspan></text>
<text xml:space="preserve" transform="matrix(1 0 -0 1 0 252)" font-size="9.9626" font-family="CMSY10" font-style="italic"><tspan y="-164.439" x="82.019">&#x2190;</tspan></text>
<text xml:space="preserve" transform="matrix(1 0 -0 1 0 252)" font-size="9.9626" font-family="CMMI10" font-style="italic"><tspan y="-164.439" x="94.74899 99.93951 105.209728 109.98181 113.41891 118.689128 124.66669">varians</tspan></text>
<text xml:space="preserve" transform="matrix(1 0 -0 1 0 252)" font-size="9.9626" font-family="CMR10"><tspan y="-164.439" x="129.32099">(</tspan></text>
<text xml:space="preserve" transform="matrix(1 0 -0 1 0 252)" font-size="9.9626" font-family="CMMI10" font-style="italic"><tspan y="-164.439" x="133.19599">C</tspan></text>
<text xml:space="preserve" transform="matrix(1 0 -0 1 0 252)" font-size="9.9626" font-family="CMR10"><tspan y="-164.439" x="141.02899">)</tspan></text>
<text xml:space="preserve" transform="matrix(1 0 -0 1 0 252)" font-size="6.9738" font-family="CMBX7" font-weight="bold"><tspan y="-152.484" x="13.4459919">7</tspan></text>
<text xml:space="preserve" transform="matrix(1 0 -0 1 0 252)" font-size="9.9626" font-family="CMR10"><tspan y="-152.484" x="52.82899">[</tspan></text>
<text xml:space="preserve" transform="matrix(1 0 -0 1 0 252)" font-size="9.9626" font-family="CMMI10" font-style="italic"><tspan y="-152.484" x="55.596994">C</tspan></text>
<text xml:space="preserve" transform="matrix(1 0 -0 1 0 252)" font-size="6.9738" font-family="CMR7"><tspan y="-150.98999" x="62.71699">1</tspan></text>
<text xml:space="preserve" transform="matrix(1 0 -0 1 0 252)" font-size="9.9626" font-family="CMMI10" font-style="italic"><tspan y="-152.484" x="67.18699 71.620349">,C</tspan></text>
<text xml:space="preserve" transform="matrix(1 0 -0 1 0 252)" font-size="6.9738" font-family="CMR7"><tspan y="-150.98999" x="78.734989">2</tspan></text>
<text xml:space="preserve" transform="matrix(1 0 -0 1 0 252)" font-size="9.9626" font-family="CMR10"><tspan y="-152.484" x="83.20399">]</tspan></text>
<text xml:space="preserve" transform="matrix(1 0 -0 1 0 252)" font-size="9.9626" font-family="CMSY10" font-style="italic"><tspan y="-152.484" x="88.73898">&#x2190;</tspan></text>
<text xml:space="preserve" transform="matrix(1 0 -0 1 0 252)" font-size="9.9626" font-family="CMMI10" font-style="italic"><tspan y="-152.484" x="101.46898 106.96833 117.727939 122.37051 127.56102 132.39289 135.82999 141.02051">kMedoids</tspan></text>
<text xml:space="preserve" transform="matrix(1 0 -0 1 0 252)" font-size="9.9626" font-family="CMR10"><tspan y="-152.484" x="145.66199">(</tspan></text>
<text xml:space="preserve" transform="matrix(1 0 -0 1 0 252)" font-size="9.9626" font-family="CMMI10" font-style="italic"><tspan y="-152.484" x="149.53598 156.81865">C,</tspan></text>
<text xml:space="preserve" transform="matrix(1 0 -0 1 0 252)" font-size="9.9626" font-family="CMR10"><tspan y="-152.484" x="161.24298 166.22428">2)</tspan></text>
<text xml:space="preserve" transform="matrix(1 0 -0 1 0 252)" font-size="6.9738" font-family="CMBX7" font-weight="bold"><tspan y="-140.52899" x="13.445984">8</tspan></text>
<text xml:space="preserve" transform="matrix(1 0 -0 1 0 252)" font-size="9.9626" font-family="CMMI10" font-style="italic"><tspan y="-140.52899" x="52.828985 60.66955 65.50141 74.24857">Comp</tspan></text>
<text xml:space="preserve" transform="matrix(1 0 -0 1 0 252)" font-size="6.9738" font-family="CMR7"><tspan y="-139.03499" x="79.250988">1</tspan></text>
<text xml:space="preserve" transform="matrix(1 0 -0 1 0 252)" font-size="9.9626" font-family="CMSY10" font-style="italic"><tspan y="-140.52899" x="86.48798">&#x2190;</tspan></text>
<text xml:space="preserve" transform="matrix(1 0 -0 1 0 252)" font-size="9.9626" font-family="CMMI10" font-style="italic"><tspan y="-140.52899" x="99.21799 104.4085 109.67872 114.450809 117.8879 123.15812 129.13568">varians</tspan></text>
<text xml:space="preserve" transform="matrix(1 0 -0 1 0 252)" font-size="9.9626" font-family="CMR10"><tspan y="-140.52899" x="133.78998">(</tspan></text>
<text xml:space="preserve" transform="matrix(1 0 -0 1 0 252)" font-size="9.9626" font-family="CMMI10" font-style="italic"><tspan y="-140.52899" x="137.66498">C</tspan></text>
<text xml:space="preserve" transform="matrix(1 0 -0 1 0 252)" font-size="6.9738" font-family="CMR7"><tspan y="-139.03499" x="144.78498">1</tspan></text>
<text xml:space="preserve" transform="matrix(1 0 -0 1 0 252)" font-size="9.9626" font-family="CMR10"><tspan y="-140.52899" x="149.25498">)</tspan></text>
<text xml:space="preserve" transform="matrix(1 0 -0 1 0 252)" font-size="6.9738" font-family="CMBX7" font-weight="bold"><tspan y="-128.57399" x="13.445969">9</tspan></text>
<text xml:space="preserve" transform="matrix(1 0 -0 1 0 252)" font-size="9.9626" font-family="CMMI10" font-style="italic"><tspan y="-128.57399" x="52.828969 60.669538 65.501399 74.24856">Comp</tspan></text>
<text xml:space="preserve" transform="matrix(1 0 -0 1 0 252)" font-size="6.9738" font-family="CMR7"><tspan y="-127.07999" x="79.25097">2</tspan></text>
<text xml:space="preserve" transform="matrix(1 0 -0 1 0 252)" font-size="9.9626" font-family="CMSY10" font-style="italic"><tspan y="-128.57399" x="86.48797">&#x2190;</tspan></text>
<text xml:space="preserve" transform="matrix(1 0 -0 1 0 252)" font-size="9.9626" font-family="CMMI10" font-style="italic"><tspan y="-128.57399" x="99.21797 104.408489 109.6787 114.45079 117.887889 123.158107 129.13567">varians</tspan></text>
<text xml:space="preserve" transform="matrix(1 0 -0 1 0 252)" font-size="9.9626" font-family="CMR10"><tspan y="-128.57399" x="133.78998">(</tspan></text>
<text xml:space="preserve" transform="matrix(1 0 -0 1 0 252)" font-size="9.9626" font-family="CMMI10" font-style="italic"><tspan y="-128.57399" x="137.66498">C</tspan></text>
<text xml:space="preserve" transform="matrix(1 0 -0 1 0 252)" font-size="6.9738" font-family="CMR7"><tspan y="-127.07999" x="144.78498">2</tspan></text>
<text xml:space="preserve" transform="matrix(1 0 -0 1 0 252)" font-size="9.9626" font-family="CMR10"><tspan y="-128.57399" x="149.25498">)</tspan></text>
<text xml:space="preserve" transform="matrix(1 0 -0 1 0 252)" font-size="6.9738" font-family="CMBX7" font-weight="bold"><tspan y="-116.61899" x="8.932968 13.445017">10</tspan></text>
<text xml:space="preserve" transform="matrix(1 0 -0 1 0 252)" font-size="9.9626" font-family="CMBX10" font-weight="bold"><tspan y="-116.61899" x="52.828969 56.00704">if</tspan></text>
<text xml:space="preserve" transform="matrix(1 0 -0 1 0 252)" font-size="9.9626" font-family="CMTI10" font-style="italic"><tspan y="-116.61899" x="63.919969 66.978488 73.603618 77.678318 82.7692 88.36819 93.459079 96.51759 99.82518 102.8837 107.97459">ifcondition</tspan></text>
<text xml:space="preserve" transform="matrix(1 0 -0 1 0 252)" font-size="9.9626" font-family="CMBX10" font-weight="bold"><tspan y="-116.61899" x="117.65196 122.10525 128.47135 133.72164">then</tspan></text>
<path transform="matrix(1,0,0,-1,58.01,150.923)" stroke-width=".398" stroke-linecap="butt" stroke-miterlimit="10" stroke-linejoin="miter" fill="none" stroke="#000000" d="M 0 0 L 0 11.955 "/>
<text xml:space="preserve" transform="matrix(1 0 -0 1 0 252)" font-size="6.9738" font-family="CMBX7" font-weight="bold"><tspan y="-104.664" x="9.331 13.843049">11</tspan></text>
<text xml:space="preserve" transform="matrix(1 0 -0 1 0 252)" font-size="9.9626" font-family="CMMI10" font-style="italic"><tspan y="-104.664" x="68.172 74.14956 78.79213 84.49074 88.087238 94.871768 99.514339 104.70485 109.34742">nextLevel</tspan></text>
<text xml:space="preserve" transform="matrix(1 0 -0 1 0 252)" font-size="9.9626" font-family="CMSY10" font-style="italic"><tspan y="-104.664" x="115.263">&#x2190;</tspan></text>
<text xml:space="preserve" transform="matrix(1 0 -0 1 0 252)" font-size="9.9626" font-family="CMMI10" font-style="italic"><tspan y="-104.664" x="127.993 133.97055 138.61313 144.31174 147.90824 154.69277 159.33535 164.52587 169.16844">nextLevel</tspan></text>
<text xml:space="preserve" transform="matrix(1 0 -0 1 0 252)" font-size="9.9626" font-family="CMSY10" font-style="italic"><tspan y="-104.664" x="174.53 183.38675">&#x222a;{</tspan></text>
<text xml:space="preserve" transform="matrix(1 0 -0 1 0 252)" font-size="9.9626" font-family="CMMI10" font-style="italic"><tspan y="-104.664" x="188.367">C</tspan></text>
<text xml:space="preserve" transform="matrix(1 0 -0 1 0 252)" font-size="6.9738" font-family="CMR7"><tspan y="-103.169" x="195.487">1</tspan></text>
<text xml:space="preserve" transform="matrix(1 0 -0 1 0 252)" font-size="9.9626" font-family="CMMI10" font-style="italic"><tspan y="-104.664" x="199.957 204.39037">,C</tspan></text>
<text xml:space="preserve" transform="matrix(1 0 -0 1 0 252)" font-size="6.9738" font-family="CMR7"><tspan y="-103.169" x="211.505">2</tspan></text>
<text xml:space="preserve" transform="matrix(1 0 -0 1 0 252)" font-size="9.9626" font-family="CMSY10" font-style="italic"><tspan y="-104.664" x="215.975">}</tspan></text>
<text xml:space="preserve" transform="matrix(1 0 -0 1 0 252)" font-size="6.9738" font-family="CMBX7" font-weight="bold"><tspan y="-92.708" x="8.932999 13.445047">12</tspan></text>
<text xml:space="preserve" transform="matrix(1 0 -0 1 0 252)" font-size="9.9626" font-family="CMBX10" font-weight="bold"><tspan y="-92.708" x="52.829 58.07929 61.25736 65.78038">else</tspan></text>
<path transform="matrix(1,0,0,-1,58.01,174.83301)" stroke-width=".398" stroke-linecap="butt" stroke-miterlimit="10" stroke-linejoin="miter" fill="none" stroke="#000000" d="M 0 0 L 0 11.955 "/>
<text xml:space="preserve" transform="matrix(1 0 -0 1 0 252)" font-size="6.9738" font-family="CMBX7" font-weight="bold"><tspan y="-80.753" x="9.331 13.843049">13</tspan></text>
<text xml:space="preserve" transform="matrix(1 0 -0 1 0 252)" font-size="9.9626" font-family="CMMI10" font-style="italic"><tspan y="-80.753" x="68.172">S</tspan></text>
<text xml:space="preserve" transform="matrix(1 0 -0 1 0 252)" font-size="9.9626" font-family="CMSY10" font-style="italic"><tspan y="-80.753" x="77.621997">&#x2190;</tspan></text>
<text xml:space="preserve" transform="matrix(1 0 -0 1 0 252)" font-size="9.9626" font-family="CMMI10" font-style="italic"><tspan y="-80.753" x="90.35199">S</tspan></text>
<text xml:space="preserve" transform="matrix(1 0 -0 1 0 252)" font-size="9.9626" font-family="CMSY10" font-style="italic"><tspan y="-80.753" x="99.24899 108.10575">&#x222a;{</tspan></text>
<text xml:space="preserve" transform="matrix(1 0 -0 1 0 252)" font-size="9.9626" font-family="CMMI10" font-style="italic"><tspan y="-80.753" x="113.08599">C</tspan></text>
<text xml:space="preserve" transform="matrix(1 0 -0 1 0 252)" font-size="9.9626" font-family="CMSY10" font-style="italic"><tspan y="-80.753" x="120.91999">}</tspan></text>
<text xml:space="preserve" transform="matrix(1 0 -0 1 0 252)" font-size="6.9738" font-family="CMBX7" font-weight="bold"><tspan y="-68.798" x="8.932991 13.44504">14</tspan></text>
<text xml:space="preserve" transform="matrix(1 0 -0 1 0 252)" font-size="9.9626" font-family="CMBX10" font-weight="bold"><tspan y="-68.798" x="52.82899 58.07928 64.44538">end</tspan></text>
<text xml:space="preserve" transform="matrix(1 0 -0 1 0 252)" font-size="6.9738" font-family="CMBX7" font-weight="bold"><tspan y="-55.846998" x="8.533993 13.0460419">15</tspan></text>
<text xml:space="preserve" transform="matrix(1 0 -0 1 0 252)" font-size="9.9626" font-family="CMBX10" font-weight="bold"><tspan y="-55.846998" x="37.48699 42.73728 49.103384">end</tspan></text>
<text xml:space="preserve" transform="matrix(1 0 -0 1 0 252)" font-size="6.9738" font-family="CMBX7" font-weight="bold"><tspan y="-43.892" x="8.533993 13.0460419">16</tspan></text>
<text xml:space="preserve" transform="matrix(1 0 -0 1 0 252)" font-size="9.9626" font-family="CMMI10" font-style="italic"><tspan y="-43.892" x="37.48699">V</tspan></text>
<text xml:space="preserve" transform="matrix(1 0 -0 1 0 252)" font-size="9.9626" font-family="CMSY10" font-style="italic"><tspan y="-43.892" x="48.27999">&#x2190;</tspan></text>
<text xml:space="preserve" transform="matrix(1 0 -0 1 0 252)" font-size="9.9626" font-family="CMMI10" font-style="italic"><tspan y="-43.892" x="61.00999 66.98755 71.63012 77.32873 80.925228 87.709758 92.352329 97.54284 102.18541">nextLevel</tspan></text>
<text xml:space="preserve" transform="matrix(1 0 -0 1 0 252)" font-size="6.9738" font-family="CMBX7" font-weight="bold"><tspan y="-31.935997" x="8.533989 13.046038">17</tspan></text>
<text xml:space="preserve" transform="matrix(1 0 -0 1 0 252)" font-size="9.9626" font-family="CMMI10" font-style="italic"><tspan y="-31.935997" x="37.486989 43.464548 48.107118 53.805727 57.402227 64.18676 68.82933 74.019847 78.662418">nextLevel</tspan></text>
<text xml:space="preserve" transform="matrix(1 0 -0 1 0 252)" font-size="9.9626" font-family="CMSY10" font-style="italic"><tspan y="-31.935997" x="84.57799 97.31019 102.29149">&#x2190;{}</tspan></text>
<text xml:space="preserve" transform="matrix(1 0 -0 1 0 252)" font-size="6.9738" font-family="CMBX7" font-weight="bold"><tspan y="-18.984997" x="8.135986 12.648035">18</tspan></text>
<text xml:space="preserve" transform="matrix(1 0 -0 1 0 252)" font-size="9.9626" font-family="CMBX10" font-weight="bold"><tspan y="-18.984997" x="22.143986 27.394276 33.760377">end</tspan></text>
<path transform="matrix(1,0,0,-1,7.2,248.358)" stroke-width=".797" stroke-linecap="butt" stroke-miterlimit="10" stroke-linejoin="miter" fill="none" stroke="#000000" d="M 0 0 L 332.957 0 "/>
</g>
</svg>
